<?xml version="1.0" standalone="no"?>
<!DOCTYPE svg PUBLIC "-//W3C//DTD SVG 1.1//EN" "http://www.w3.org/Graphics/SVG/1.1/DTD/svg11.dtd">
<svg width="188mm" height="192mm" viewBox="-94 -96 188 192" xmlns="http://www.w3.org/2000/svg" version="1.1">
<title>OpenSCAD Model</title>
<path d="
M 94,-96 L -94,-96 L -94,96 L 94,96 z
M 69.7074,-68.5288 L 69.426,-68.6142 L 69.1666,-68.7528 L 68.9393,-68.9393 L 68.7528,-69.1666 L 68.6142,-69.426
 L 68.5288,-69.7074 L 68.5,-70 L 68.5288,-70.2926 L 68.6142,-70.574 L 68.7528,-70.8333 L 68.9393,-71.0607
 L 69.1666,-71.2472 L 69.426,-71.3858 L 69.7074,-71.4712 L 70,-71.5 L 70.2926,-71.4712 L 70.574,-71.3858
 L 70.8333,-71.2472 L 71.0607,-71.0607 L 71.2472,-70.8333 L 71.3858,-70.574 L 71.4712,-70.2926 L 71.5,-70
 L 71.4712,-69.7074 L 71.3858,-69.426 L 71.2472,-69.1666 L 71.0607,-68.9393 L 70.8333,-68.7528 L 70.574,-68.6142
 L 70.2926,-68.5288 L 70,-68.5 z
M -70.2926,-68.5288 L -70.574,-68.6142 L -70.8333,-68.7528 L -71.0607,-68.9393 L -71.2472,-69.1666 L -71.3858,-69.426
 L -71.4712,-69.7074 L -71.5,-70 L -71.4712,-70.2926 L -71.3858,-70.574 L -71.2472,-70.8333 L -71.0607,-71.0607
 L -70.8333,-71.2472 L -70.574,-71.3858 L -70.2926,-71.4712 L -70,-71.5 L -69.7074,-71.4712 L -69.426,-71.3858
 L -69.1666,-71.2472 L -68.9393,-71.0607 L -68.7528,-70.8333 L -68.6142,-70.574 L -68.5288,-70.2926 L -68.5,-70
 L -68.5288,-69.7074 L -68.6142,-69.426 L -68.7528,-69.1666 L -68.9393,-68.9393 L -69.1666,-68.7528 L -69.426,-68.6142
 L -69.7074,-68.5288 L -70,-68.5 z
M 69.7074,71.4712 L 69.426,71.3858 L 69.1666,71.2472 L 68.9393,71.0607 L 68.7528,70.8333 L 68.6142,70.574
 L 68.5288,70.2926 L 68.5,70 L 68.5288,69.7074 L 68.6142,69.426 L 68.7528,69.1666 L 68.9393,68.9393
 L 69.1666,68.7528 L 69.426,68.6142 L 69.7074,68.5288 L 70,68.5 L 70.2926,68.5288 L 70.574,68.6142
 L 70.8333,68.7528 L 71.0607,68.9393 L 71.2472,69.1666 L 71.3858,69.426 L 71.4712,69.7074 L 71.5,70
 L 71.4712,70.2926 L 71.3858,70.574 L 71.2472,70.8333 L 71.0607,71.0607 L 70.8333,71.2472 L 70.574,71.3858
 L 70.2926,71.4712 L 70,71.5 z
M -70.2926,71.4712 L -70.574,71.3858 L -70.8333,71.2472 L -71.0607,71.0607 L -71.2472,70.8333 L -71.3858,70.574
 L -71.4712,70.2926 L -71.5,70 L -71.4712,69.7074 L -71.3858,69.426 L -71.2472,69.1666 L -71.0607,68.9393
 L -70.8333,68.7528 L -70.574,68.6142 L -70.2926,68.5288 L -70,68.5 L -69.7074,68.5288 L -69.426,68.6142
 L -69.1666,68.7528 L -68.9393,68.9393 L -68.7528,69.1666 L -68.6142,69.426 L -68.5288,69.7074 L -68.5,70
 L -68.5288,70.2926 L -68.6142,70.574 L -68.7528,70.8333 L -68.9393,71.0607 L -69.1666,71.2472 L -69.426,71.3858
 L -69.7074,71.4712 L -70,71.5 z
" stroke="black" fill="lightgray" stroke-width="0.5"/></svg>
