<?xml version="1.0" standalone="no"?>
<!DOCTYPE svg PUBLIC "-//W3C//DTD SVG 1.1//EN" "http://www.w3.org/Graphics/SVG/1.1/DTD/svg11.dtd">
<svg width="235" height="325" viewBox="0 -325 235 325" xmlns="http://www.w3.org/2000/svg" version="1.1">
<title>OpenSCAD Model</title>
<path d="
M 235,-325 L 40,-325 L 0,-295 L 0,-0 L 235,-0 z
M 61.8896,-302.753 L 61.7794,-302.761 L 61.6698,-302.774 L 61.561,-302.793 L 61.4533,-302.817 L 61.3468,-302.847
 L 61.242,-302.882 L 61.139,-302.921 L 61.038,-302.966 L 60.9393,-303.016 L 60.8433,-303.07 L 60.75,-303.129
 L 60.6597,-303.193 L 60.5726,-303.261 L 60.489,-303.333 L 60.409,-303.409 L 60.3329,-303.489 L 60.2607,-303.573
 L 60.1928,-303.66 L 60.1292,-303.75 L 60.0701,-303.843 L 60.0157,-303.939 L 59.966,-304.038 L 59.9213,-304.139
 L 59.8815,-304.242 L 59.8469,-304.347 L 59.8174,-304.453 L 59.7932,-304.561 L 59.7743,-304.67 L 59.7608,-304.779
 L 59.7527,-304.89 L 59.75,-305 L 59.7527,-305.11 L 59.7608,-305.221 L 59.7743,-305.33 L 59.7932,-305.439
 L 59.8174,-305.547 L 59.8469,-305.653 L 59.8815,-305.758 L 59.9213,-305.861 L 59.966,-305.962 L 60.0157,-306.061
 L 60.0701,-306.157 L 60.1292,-306.25 L 60.1928,-306.34 L 60.2607,-306.427 L 60.3329,-306.511 L 60.409,-306.591
 L 60.489,-306.667 L 60.5726,-306.739 L 60.6597,-306.807 L 60.75,-306.871 L 60.8433,-306.93 L 60.9393,-306.984
 L 61.038,-307.034 L 61.139,-307.079 L 61.242,-307.118 L 61.3468,-307.153 L 61.4533,-307.183 L 61.561,-307.207
 L 61.6698,-307.226 L 61.7794,-307.239 L 61.8896,-307.247 L 62,-307.25 L 62.1104,-307.247 L 62.2205,-307.239
 L 62.3301,-307.226 L 62.4389,-307.207 L 62.5467,-307.183 L 62.6531,-307.153 L 62.758,-307.118 L 62.861,-307.079
 L 62.962,-307.034 L 63.0606,-306.984 L 63.1567,-306.93 L 63.25,-306.871 L 63.3403,-306.807 L 63.4274,-306.739
 L 63.511,-306.667 L 63.591,-306.591 L 63.6671,-306.511 L 63.7393,-306.427 L 63.8072,-306.34 L 63.8708,-306.25
 L 63.9299,-306.157 L 63.9843,-306.061 L 64.034,-305.962 L 64.0787,-305.861 L 64.1185,-305.758 L 64.1531,-305.653
 L 64.1826,-305.547 L 64.2068,-305.439 L 64.2256,-305.33 L 64.2392,-305.221 L 64.2473,-305.11 L 64.25,-305
 L 64.2473,-304.89 L 64.2392,-304.779 L 64.2256,-304.67 L 64.2068,-304.561 L 64.1826,-304.453 L 64.1531,-304.347
 L 64.1185,-304.242 L 64.0787,-304.139 L 64.034,-304.038 L 63.9843,-303.939 L 63.9299,-303.843 L 63.8708,-303.75
 L 63.8072,-303.66 L 63.7393,-303.573 L 63.6671,-303.489 L 63.591,-303.409 L 63.511,-303.333 L 63.4274,-303.261
 L 63.3403,-303.193 L 63.25,-303.129 L 63.1567,-303.07 L 63.0606,-303.016 L 62.962,-302.966 L 62.861,-302.921
 L 62.758,-302.882 L 62.6531,-302.847 L 62.5467,-302.817 L 62.4389,-302.793 L 62.3301,-302.774 L 62.2205,-302.761
 L 62.1104,-302.753 L 62,-302.75 z
M 49.897,-227.903 L 49.7942,-227.91 L 49.6919,-227.923 L 49.5903,-227.94 L 49.4897,-227.963 L 49.3904,-227.99
 L 49.2925,-228.023 L 49.1964,-228.06 L 49.1021,-228.102 L 49.0101,-228.148 L 48.9204,-228.199 L 48.8333,-228.254
 L 48.749,-228.313 L 48.6678,-228.377 L 48.5897,-228.444 L 48.5151,-228.515 L 48.444,-228.59 L 48.3767,-228.668
 L 48.3133,-228.749 L 48.2539,-228.833 L 48.1988,-228.92 L 48.148,-229.01 L 48.1016,-229.102 L 48.0598,-229.196
 L 48.0228,-229.293 L 47.9904,-229.39 L 47.9629,-229.49 L 47.9403,-229.59 L 47.9227,-229.692 L 47.9101,-229.794
 L 47.9025,-229.897 L 47.9,-230 L 47.9025,-230.103 L 47.9101,-230.206 L 47.9227,-230.308 L 47.9403,-230.41
 L 47.9629,-230.51 L 47.9904,-230.61 L 48.0228,-230.707 L 48.0598,-230.804 L 48.1016,-230.898 L 48.148,-230.99
 L 48.1988,-231.08 L 48.2539,-231.167 L 48.3133,-231.251 L 48.3767,-231.332 L 48.444,-231.41 L 48.5151,-231.485
 L 48.5897,-231.556 L 48.6678,-231.623 L 48.749,-231.687 L 48.8333,-231.746 L 48.9204,-231.801 L 49.0101,-231.852
 L 49.1021,-231.898 L 49.1964,-231.94 L 49.2925,-231.977 L 49.3904,-232.01 L 49.4897,-232.037 L 49.5903,-232.06
 L 49.6919,-232.077 L 49.7942,-232.09 L 49.897,-232.097 L 50,-232.1 L 50.103,-232.097 L 50.2058,-232.09
 L 50.3081,-232.077 L 50.4097,-232.06 L 50.5103,-232.037 L 50.6096,-232.01 L 50.7075,-231.977 L 50.8036,-231.94
 L 50.8979,-231.898 L 50.9899,-231.852 L 51.0796,-231.801 L 51.1667,-231.746 L 51.251,-231.687 L 51.3322,-231.623
 L 51.4103,-231.556 L 51.4849,-231.485 L 51.556,-231.41 L 51.6233,-231.332 L 51.6867,-231.251 L 51.7461,-231.167
 L 51.8012,-231.08 L 51.852,-230.99 L 51.8984,-230.898 L 51.9401,-230.804 L 51.9772,-230.707 L 52.0096,-230.61
 L 52.0371,-230.51 L 52.0596,-230.41 L 52.0773,-230.308 L 52.0899,-230.206 L 52.0975,-230.103 L 52.1,-230
 L 52.0975,-229.897 L 52.0899,-229.794 L 52.0773,-229.692 L 52.0596,-229.59 L 52.0371,-229.49 L 52.0096,-229.39
 L 51.9772,-229.293 L 51.9401,-229.196 L 51.8984,-229.102 L 51.852,-229.01 L 51.8012,-228.92 L 51.7461,-228.833
 L 51.6867,-228.749 L 51.6233,-228.668 L 51.556,-228.59 L 51.4849,-228.515 L 51.4103,-228.444 L 51.3322,-228.377
 L 51.251,-228.313 L 51.1667,-228.254 L 51.0796,-228.199 L 50.9899,-228.148 L 50.8979,-228.102 L 50.8036,-228.06
 L 50.7075,-228.023 L 50.6096,-227.99 L 50.5103,-227.963 L 50.4097,-227.94 L 50.3081,-227.923 L 50.2058,-227.91
 L 50.103,-227.903 L 50,-227.9 z
M 189.897,-227.903 L 189.794,-227.91 L 189.692,-227.923 L 189.59,-227.94 L 189.49,-227.963 L 189.39,-227.99
 L 189.293,-228.023 L 189.196,-228.06 L 189.102,-228.102 L 189.01,-228.148 L 188.92,-228.199 L 188.833,-228.254
 L 188.749,-228.313 L 188.668,-228.377 L 188.59,-228.444 L 188.515,-228.515 L 188.444,-228.59 L 188.377,-228.668
 L 188.313,-228.749 L 188.254,-228.833 L 188.199,-228.92 L 188.148,-229.01 L 188.102,-229.102 L 188.06,-229.196
 L 188.023,-229.293 L 187.99,-229.39 L 187.963,-229.49 L 187.94,-229.59 L 187.923,-229.692 L 187.91,-229.794
 L 187.903,-229.897 L 187.9,-230 L 187.903,-230.103 L 187.91,-230.206 L 187.923,-230.308 L 187.94,-230.41
 L 187.963,-230.51 L 187.99,-230.61 L 188.023,-230.707 L 188.06,-230.804 L 188.102,-230.898 L 188.148,-230.99
 L 188.199,-231.08 L 188.254,-231.167 L 188.313,-231.251 L 188.377,-231.332 L 188.444,-231.41 L 188.515,-231.485
 L 188.59,-231.556 L 188.668,-231.623 L 188.749,-231.687 L 188.833,-231.746 L 188.92,-231.801 L 189.01,-231.852
 L 189.102,-231.898 L 189.196,-231.94 L 189.293,-231.977 L 189.39,-232.01 L 189.49,-232.037 L 189.59,-232.06
 L 189.692,-232.077 L 189.794,-232.09 L 189.897,-232.097 L 190,-232.1 L 190.103,-232.097 L 190.206,-232.09
 L 190.308,-232.077 L 190.41,-232.06 L 190.51,-232.037 L 190.61,-232.01 L 190.707,-231.977 L 190.804,-231.94
 L 190.898,-231.898 L 190.99,-231.852 L 191.08,-231.801 L 191.167,-231.746 L 191.251,-231.687 L 191.332,-231.623
 L 191.41,-231.556 L 191.485,-231.485 L 191.556,-231.41 L 191.623,-231.332 L 191.687,-231.251 L 191.746,-231.167
 L 191.801,-231.08 L 191.852,-230.99 L 191.898,-230.898 L 191.94,-230.804 L 191.977,-230.707 L 192.01,-230.61
 L 192.037,-230.51 L 192.06,-230.41 L 192.077,-230.308 L 192.09,-230.206 L 192.097,-230.103 L 192.1,-230
 L 192.097,-229.897 L 192.09,-229.794 L 192.077,-229.692 L 192.06,-229.59 L 192.037,-229.49 L 192.01,-229.39
 L 191.977,-229.293 L 191.94,-229.196 L 191.898,-229.102 L 191.852,-229.01 L 191.801,-228.92 L 191.746,-228.833
 L 191.687,-228.749 L 191.623,-228.668 L 191.556,-228.59 L 191.485,-228.515 L 191.41,-228.444 L 191.332,-228.377
 L 191.251,-228.313 L 191.167,-228.254 L 191.08,-228.199 L 190.99,-228.148 L 190.898,-228.102 L 190.804,-228.06
 L 190.707,-228.023 L 190.61,-227.99 L 190.51,-227.963 L 190.41,-227.94 L 190.308,-227.923 L 190.206,-227.91
 L 190.103,-227.903 L 190,-227.9 z
M 49.897,-87.9025 L 49.7942,-87.9101 L 49.6919,-87.9227 L 49.5903,-87.9403 L 49.4897,-87.9629 L 49.3904,-87.9904
 L 49.2925,-88.0228 L 49.1964,-88.0598 L 49.1021,-88.1016 L 49.0101,-88.148 L 48.9204,-88.1988 L 48.8333,-88.2539
 L 48.749,-88.3133 L 48.6678,-88.3767 L 48.5897,-88.444 L 48.5151,-88.5151 L 48.444,-88.5897 L 48.3767,-88.6678
 L 48.3133,-88.749 L 48.2539,-88.8333 L 48.1988,-88.9204 L 48.148,-89.0101 L 48.1016,-89.1021 L 48.0598,-89.1964
 L 48.0228,-89.2925 L 47.9904,-89.3904 L 47.9629,-89.4897 L 47.9403,-89.5903 L 47.9227,-89.6919 L 47.9101,-89.7942
 L 47.9025,-89.897 L 47.9,-90 L 47.9025,-90.103 L 47.9101,-90.2058 L 47.9227,-90.3081 L 47.9403,-90.4097
 L 47.9629,-90.5103 L 47.9904,-90.6096 L 48.0228,-90.7075 L 48.0598,-90.8036 L 48.1016,-90.8979 L 48.148,-90.9899
 L 48.1988,-91.0796 L 48.2539,-91.1667 L 48.3133,-91.251 L 48.3767,-91.3322 L 48.444,-91.4103 L 48.5151,-91.4849
 L 48.5897,-91.556 L 48.6678,-91.6233 L 48.749,-91.6867 L 48.8333,-91.7461 L 48.9204,-91.8012 L 49.0101,-91.852
 L 49.1021,-91.8984 L 49.1964,-91.9401 L 49.2925,-91.9772 L 49.3904,-92.0096 L 49.4897,-92.0371 L 49.5903,-92.0596
 L 49.6919,-92.0773 L 49.7942,-92.0899 L 49.897,-92.0975 L 50,-92.1 L 50.103,-92.0975 L 50.2058,-92.0899
 L 50.3081,-92.0773 L 50.4097,-92.0596 L 50.5103,-92.0371 L 50.6096,-92.0096 L 50.7075,-91.9772 L 50.8036,-91.9401
 L 50.8979,-91.8984 L 50.9899,-91.852 L 51.0796,-91.8012 L 51.1667,-91.7461 L 51.251,-91.6867 L 51.3322,-91.6233
 L 51.4103,-91.556 L 51.4849,-91.4849 L 51.556,-91.4103 L 51.6233,-91.3322 L 51.6867,-91.251 L 51.7461,-91.1667
 L 51.8012,-91.0796 L 51.852,-90.9899 L 51.8984,-90.8979 L 51.9401,-90.8036 L 51.9772,-90.7075 L 52.0096,-90.6096
 L 52.0371,-90.5103 L 52.0596,-90.4097 L 52.0773,-90.3081 L 52.0899,-90.2058 L 52.0975,-90.103 L 52.1,-90
 L 52.0975,-89.897 L 52.0899,-89.7942 L 52.0773,-89.6919 L 52.0596,-89.5903 L 52.0371,-89.4897 L 52.0096,-89.3904
 L 51.9772,-89.2925 L 51.9401,-89.1964 L 51.8984,-89.1021 L 51.852,-89.0101 L 51.8012,-88.9204 L 51.7461,-88.8333
 L 51.6867,-88.749 L 51.6233,-88.6678 L 51.556,-88.5897 L 51.4849,-88.5151 L 51.4103,-88.444 L 51.3322,-88.3767
 L 51.251,-88.3133 L 51.1667,-88.2539 L 51.0796,-88.1988 L 50.9899,-88.148 L 50.8979,-88.1016 L 50.8036,-88.0598
 L 50.7075,-88.0228 L 50.6096,-87.9904 L 50.5103,-87.9629 L 50.4097,-87.9403 L 50.3081,-87.9227 L 50.2058,-87.9101
 L 50.103,-87.9025 L 50,-87.9 z
M 189.897,-87.9025 L 189.794,-87.9101 L 189.692,-87.9227 L 189.59,-87.9403 L 189.49,-87.9629 L 189.39,-87.9904
 L 189.293,-88.0228 L 189.196,-88.0598 L 189.102,-88.1016 L 189.01,-88.148 L 188.92,-88.1988 L 188.833,-88.2539
 L 188.749,-88.3133 L 188.668,-88.3767 L 188.59,-88.444 L 188.515,-88.5151 L 188.444,-88.5897 L 188.377,-88.6678
 L 188.313,-88.749 L 188.254,-88.8333 L 188.199,-88.9204 L 188.148,-89.0101 L 188.102,-89.1021 L 188.06,-89.1964
 L 188.023,-89.2925 L 187.99,-89.3904 L 187.963,-89.4897 L 187.94,-89.5903 L 187.923,-89.6919 L 187.91,-89.7942
 L 187.903,-89.897 L 187.9,-90 L 187.903,-90.103 L 187.91,-90.2058 L 187.923,-90.3081 L 187.94,-90.4097
 L 187.963,-90.5103 L 187.99,-90.6096 L 188.023,-90.7075 L 188.06,-90.8036 L 188.102,-90.8979 L 188.148,-90.9899
 L 188.199,-91.0796 L 188.254,-91.1667 L 188.313,-91.251 L 188.377,-91.3322 L 188.444,-91.4103 L 188.515,-91.4849
 L 188.59,-91.556 L 188.668,-91.6233 L 188.749,-91.6867 L 188.833,-91.7461 L 188.92,-91.8012 L 189.01,-91.852
 L 189.102,-91.8984 L 189.196,-91.9401 L 189.293,-91.9772 L 189.39,-92.0096 L 189.49,-92.0371 L 189.59,-92.0596
 L 189.692,-92.0773 L 189.794,-92.0899 L 189.897,-92.0975 L 190,-92.1 L 190.103,-92.0975 L 190.206,-92.0899
 L 190.308,-92.0773 L 190.41,-92.0596 L 190.51,-92.0371 L 190.61,-92.0096 L 190.707,-91.9772 L 190.804,-91.9401
 L 190.898,-91.8984 L 190.99,-91.852 L 191.08,-91.8012 L 191.167,-91.7461 L 191.251,-91.6867 L 191.332,-91.6233
 L 191.41,-91.556 L 191.485,-91.4849 L 191.556,-91.4103 L 191.623,-91.3322 L 191.687,-91.251 L 191.746,-91.1667
 L 191.801,-91.0796 L 191.852,-90.9899 L 191.898,-90.8979 L 191.94,-90.8036 L 191.977,-90.7075 L 192.01,-90.6096
 L 192.037,-90.5103 L 192.06,-90.4097 L 192.077,-90.3081 L 192.09,-90.2058 L 192.097,-90.103 L 192.1,-90
 L 192.097,-89.897 L 192.09,-89.7942 L 192.077,-89.6919 L 192.06,-89.5903 L 192.037,-89.4897 L 192.01,-89.3904
 L 191.977,-89.2925 L 191.94,-89.1964 L 191.898,-89.1021 L 191.852,-89.0101 L 191.801,-88.9204 L 191.746,-88.8333
 L 191.687,-88.749 L 191.623,-88.6678 L 191.556,-88.5897 L 191.485,-88.5151 L 191.41,-88.444 L 191.332,-88.3767
 L 191.251,-88.3133 L 191.167,-88.2539 L 191.08,-88.1988 L 190.99,-88.148 L 190.898,-88.1016 L 190.804,-88.0598
 L 190.707,-88.0228 L 190.61,-87.9904 L 190.51,-87.9629 L 190.41,-87.9403 L 190.308,-87.9227 L 190.206,-87.9101
 L 190.103,-87.9025 L 190,-87.9 z
M 19.8896,-17.7527 L 19.7794,-17.7608 L 19.6698,-17.7743 L 19.561,-17.7932 L 19.4533,-17.8174 L 19.3468,-17.8469
 L 19.242,-17.8815 L 19.139,-17.9213 L 19.038,-17.966 L 18.9393,-18.0157 L 18.8433,-18.0701 L 18.75,-18.1292
 L 18.6597,-18.1928 L 18.5726,-18.2607 L 18.489,-18.3329 L 18.409,-18.409 L 18.3329,-18.489 L 18.2607,-18.5726
 L 18.1928,-18.6597 L 18.1292,-18.75 L 18.0701,-18.8433 L 18.0157,-18.9393 L 17.966,-19.038 L 17.9213,-19.139
 L 17.8815,-19.242 L 17.8469,-19.3468 L 17.8174,-19.4533 L 17.7932,-19.561 L 17.7743,-19.6698 L 17.7608,-19.7794
 L 17.7527,-19.8896 L 17.75,-20 L 17.7527,-20.1104 L 17.7608,-20.2205 L 17.7743,-20.3301 L 17.7932,-20.4389
 L 17.8174,-20.5467 L 17.8469,-20.6531 L 17.8815,-20.758 L 17.9213,-20.861 L 17.966,-20.962 L 18.0157,-21.0606
 L 18.0701,-21.1567 L 18.1292,-21.25 L 18.1928,-21.3403 L 18.2607,-21.4274 L 18.3329,-21.511 L 18.409,-21.591
 L 18.489,-21.6671 L 18.5726,-21.7393 L 18.6597,-21.8072 L 18.75,-21.8708 L 18.8433,-21.9299 L 18.9393,-21.9843
 L 19.038,-22.034 L 19.139,-22.0787 L 19.242,-22.1185 L 19.3468,-22.1531 L 19.4533,-22.1826 L 19.561,-22.2068
 L 19.6698,-22.2256 L 19.7794,-22.2392 L 19.8896,-22.2473 L 20,-22.25 L 20.1104,-22.2473 L 20.2205,-22.2392
 L 20.3301,-22.2256 L 20.4389,-22.2068 L 20.5467,-22.1826 L 20.6531,-22.1531 L 20.758,-22.1185 L 20.861,-22.0787
 L 20.962,-22.034 L 21.0606,-21.9843 L 21.1567,-21.9299 L 21.25,-21.8708 L 21.3403,-21.8072 L 21.4274,-21.7393
 L 21.511,-21.6671 L 21.591,-21.591 L 21.6671,-21.511 L 21.7393,-21.4274 L 21.8072,-21.3403 L 21.8708,-21.25
 L 21.9299,-21.1567 L 21.9843,-21.0606 L 22.034,-20.962 L 22.0787,-20.861 L 22.1185,-20.758 L 22.1531,-20.6531
 L 22.1826,-20.5467 L 22.2068,-20.4389 L 22.2256,-20.3301 L 22.2392,-20.2205 L 22.2473,-20.1104 L 22.25,-20
 L 22.2473,-19.8896 L 22.2392,-19.7794 L 22.2256,-19.6698 L 22.2068,-19.561 L 22.1826,-19.4533 L 22.1531,-19.3468
 L 22.1185,-19.242 L 22.0787,-19.139 L 22.034,-19.038 L 21.9843,-18.9393 L 21.9299,-18.8433 L 21.8708,-18.75
 L 21.8072,-18.6597 L 21.7393,-18.5726 L 21.6671,-18.489 L 21.591,-18.409 L 21.511,-18.3329 L 21.4274,-18.2607
 L 21.3403,-18.1928 L 21.25,-18.1292 L 21.1567,-18.0701 L 21.0606,-18.0157 L 20.962,-17.966 L 20.861,-17.9213
 L 20.758,-17.8815 L 20.6531,-17.8469 L 20.5467,-17.8174 L 20.4389,-17.7932 L 20.3301,-17.7743 L 20.2205,-17.7608
 L 20.1104,-17.7527 L 20,-17.75 z
" stroke="black" fill="lightgray" stroke-width="0.5"/></svg>
