<?xml version="1.0" standalone="no"?>
<!DOCTYPE svg PUBLIC "-//W3C//DTD SVG 1.1//EN" "http://www.w3.org/Graphics/SVG/1.1/DTD/svg11.dtd">
<svg width="235" height="325" viewBox="0 -325 235 325" xmlns="http://www.w3.org/2000/svg" version="1.1">
<title>OpenSCAD Model</title>
<path d="
M 235,-325 L 40,-325 L 0,-295 L 0,-0 L 235,-0 z
M 61.8896,-302.753 L 61.7794,-302.761 L 61.6698,-302.774 L 61.561,-302.793 L 61.4533,-302.817 L 61.3468,-302.847
 L 61.242,-302.882 L 61.139,-302.921 L 61.038,-302.966 L 60.9393,-303.016 L 60.8433,-303.07 L 60.75,-303.129
 L 60.6597,-303.193 L 60.5726,-303.261 L 60.489,-303.333 L 60.409,-303.409 L 60.3329,-303.489 L 60.2607,-303.573
 L 60.1928,-303.66 L 60.1292,-303.75 L 60.0701,-303.843 L 60.0157,-303.939 L 59.966,-304.038 L 59.9213,-304.139
 L 59.8815,-304.242 L 59.8469,-304.347 L 59.8174,-304.453 L 59.7932,-304.561 L 59.7743,-304.67 L 59.7608,-304.779
 L 59.7527,-304.89 L 59.75,-305 L 59.7527,-305.11 L 59.7608,-305.221 L 59.7743,-305.33 L 59.7932,-305.439
 L 59.8174,-305.547 L 59.8469,-305.653 L 59.8815,-305.758 L 59.9213,-305.861 L 59.966,-305.962 L 60.0157,-306.061
 L 60.0701,-306.157 L 60.1292,-306.25 L 60.1928,-306.34 L 60.2607,-306.427 L 60.3329,-306.511 L 60.409,-306.591
 L 60.489,-306.667 L 60.5726,-306.739 L 60.6597,-306.807 L 60.75,-306.871 L 60.8433,-306.93 L 60.9393,-306.984
 L 61.038,-307.034 L 61.139,-307.079 L 61.242,-307.118 L 61.3468,-307.153 L 61.4533,-307.183 L 61.561,-307.207
 L 61.6698,-307.226 L 61.7794,-307.239 L 61.8896,-307.247 L 62,-307.25 L 62.1104,-307.247 L 62.2205,-307.239
 L 62.3301,-307.226 L 62.4389,-307.207 L 62.5467,-307.183 L 62.6531,-307.153 L 62.758,-307.118 L 62.861,-307.079
 L 62.962,-307.034 L 63.0606,-306.984 L 63.1567,-306.93 L 63.25,-306.871 L 63.3403,-306.807 L 63.4274,-306.739
 L 63.511,-306.667 L 63.591,-306.591 L 63.6671,-306.511 L 63.7393,-306.427 L 63.8072,-306.34 L 63.8708,-306.25
 L 63.9299,-306.157 L 63.9843,-306.061 L 64.034,-305.962 L 64.0787,-305.861 L 64.1185,-305.758 L 64.1531,-305.653
 L 64.1826,-305.547 L 64.2068,-305.439 L 64.2256,-305.33 L 64.2392,-305.221 L 64.2473,-305.11 L 64.25,-305
 L 64.2473,-304.89 L 64.2392,-304.779 L 64.2256,-304.67 L 64.2068,-304.561 L 64.1826,-304.453 L 64.1531,-304.347
 L 64.1185,-304.242 L 64.0787,-304.139 L 64.034,-304.038 L 63.9843,-303.939 L 63.9299,-303.843 L 63.8708,-303.75
 L 63.8072,-303.66 L 63.7393,-303.573 L 63.6671,-303.489 L 63.591,-303.409 L 63.511,-303.333 L 63.4274,-303.261
 L 63.3403,-303.193 L 63.25,-303.129 L 63.1567,-303.07 L 63.0606,-303.016 L 62.962,-302.966 L 62.861,-302.921
 L 62.758,-302.882 L 62.6531,-302.847 L 62.5467,-302.817 L 62.4389,-302.793 L 62.3301,-302.774 L 62.2205,-302.761
 L 62.1104,-302.753 L 62,-302.75 z
M 49.3866,-217.515 L 48.7748,-217.56 L 48.1659,-217.635 L 47.5614,-217.74 L 46.9627,-217.875 L 46.3714,-218.038
 L 45.7889,-218.231 L 45.2164,-218.451 L 44.6555,-218.7 L 44.1075,-218.976 L 43.5737,-219.278 L 43.0554,-219.607
 L 42.5538,-219.96 L 42.0701,-220.337 L 41.6055,-220.738 L 41.1612,-221.161 L 40.7381,-221.605 L 40.3374,-222.07
 L 39.9599,-222.554 L 39.6066,-223.055 L 39.2784,-223.574 L 38.976,-224.108 L 38.7001,-224.656 L 38.4515,-225.216
 L 38.2307,-225.789 L 38.0382,-226.371 L 37.8746,-226.963 L 37.7402,-227.561 L 37.6353,-228.166 L 37.5602,-228.775
 L 37.515,-229.387 L 37.5,-230 L 37.515,-230.613 L 37.5602,-231.225 L 37.6353,-231.834 L 37.7402,-232.439
 L 37.8746,-233.037 L 38.0382,-233.629 L 38.2307,-234.211 L 38.4515,-234.784 L 38.7001,-235.344 L 38.976,-235.892
 L 39.2784,-236.426 L 39.6066,-236.945 L 39.9599,-237.446 L 40.3374,-237.93 L 40.7381,-238.394 L 41.1612,-238.839
 L 41.6055,-239.262 L 42.0701,-239.663 L 42.5538,-240.04 L 43.0554,-240.393 L 43.5737,-240.722 L 44.1075,-241.024
 L 44.6555,-241.3 L 45.2164,-241.548 L 45.7889,-241.769 L 46.3714,-241.962 L 46.9627,-242.125 L 47.5614,-242.26
 L 48.1659,-242.365 L 48.7748,-242.44 L 49.3866,-242.485 L 50,-242.5 L 50.6133,-242.485 L 51.2252,-242.44
 L 51.8341,-242.365 L 52.4386,-242.26 L 53.0372,-242.125 L 53.6286,-241.962 L 54.2111,-241.769 L 54.7835,-241.548
 L 55.3444,-241.3 L 55.8925,-241.024 L 56.4263,-240.722 L 56.9446,-240.393 L 57.4462,-240.04 L 57.9299,-239.663
 L 58.3945,-239.262 L 58.8388,-238.839 L 59.2619,-238.394 L 59.6626,-237.93 L 60.0401,-237.446 L 60.3934,-236.945
 L 60.7216,-236.426 L 61.024,-235.892 L 61.2999,-235.344 L 61.5485,-234.784 L 61.7693,-234.211 L 61.9617,-233.629
 L 62.1254,-233.037 L 62.2598,-232.439 L 62.3647,-231.834 L 62.4398,-231.225 L 62.4849,-230.613 L 62.5,-230
 L 62.4849,-229.387 L 62.4398,-228.775 L 62.3647,-228.166 L 62.2598,-227.561 L 62.1254,-226.963 L 61.9617,-226.371
 L 61.7693,-225.789 L 61.5485,-225.216 L 61.2999,-224.656 L 61.024,-224.108 L 60.7216,-223.574 L 60.3934,-223.055
 L 60.0401,-222.554 L 59.6626,-222.07 L 59.2619,-221.605 L 58.8388,-221.161 L 58.3945,-220.738 L 57.9299,-220.337
 L 57.4462,-219.96 L 56.9446,-219.607 L 56.4263,-219.278 L 55.8925,-218.976 L 55.3444,-218.7 L 54.7835,-218.451
 L 54.2111,-218.231 L 53.6286,-218.038 L 53.0372,-217.875 L 52.4386,-217.74 L 51.8341,-217.635 L 51.2252,-217.56
 L 50.6133,-217.515 L 50,-217.5 z
M 189.387,-217.515 L 188.775,-217.56 L 188.166,-217.635 L 187.561,-217.74 L 186.963,-217.875 L 186.371,-218.038
 L 185.789,-218.231 L 185.216,-218.451 L 184.656,-218.7 L 184.108,-218.976 L 183.574,-219.278 L 183.055,-219.607
 L 182.554,-219.96 L 182.07,-220.337 L 181.605,-220.738 L 181.161,-221.161 L 180.738,-221.605 L 180.337,-222.07
 L 179.96,-222.554 L 179.607,-223.055 L 179.278,-223.574 L 178.976,-224.108 L 178.7,-224.656 L 178.451,-225.216
 L 178.231,-225.789 L 178.038,-226.371 L 177.875,-226.963 L 177.74,-227.561 L 177.635,-228.166 L 177.56,-228.775
 L 177.515,-229.387 L 177.5,-230 L 177.515,-230.613 L 177.56,-231.225 L 177.635,-231.834 L 177.74,-232.439
 L 177.875,-233.037 L 178.038,-233.629 L 178.231,-234.211 L 178.451,-234.784 L 178.7,-235.344 L 178.976,-235.892
 L 179.278,-236.426 L 179.607,-236.945 L 179.96,-237.446 L 180.337,-237.93 L 180.738,-238.394 L 181.161,-238.839
 L 181.605,-239.262 L 182.07,-239.663 L 182.554,-240.04 L 183.055,-240.393 L 183.574,-240.722 L 184.108,-241.024
 L 184.656,-241.3 L 185.216,-241.548 L 185.789,-241.769 L 186.371,-241.962 L 186.963,-242.125 L 187.561,-242.26
 L 188.166,-242.365 L 188.775,-242.44 L 189.387,-242.485 L 190,-242.5 L 190.613,-242.485 L 191.225,-242.44
 L 191.834,-242.365 L 192.439,-242.26 L 193.037,-242.125 L 193.629,-241.962 L 194.211,-241.769 L 194.784,-241.548
 L 195.344,-241.3 L 195.892,-241.024 L 196.426,-240.722 L 196.945,-240.393 L 197.446,-240.04 L 197.93,-239.663
 L 198.394,-239.262 L 198.839,-238.839 L 199.262,-238.394 L 199.663,-237.93 L 200.04,-237.446 L 200.393,-236.945
 L 200.722,-236.426 L 201.024,-235.892 L 201.3,-235.344 L 201.548,-234.784 L 201.769,-234.211 L 201.962,-233.629
 L 202.125,-233.037 L 202.26,-232.439 L 202.365,-231.834 L 202.44,-231.225 L 202.485,-230.613 L 202.5,-230
 L 202.485,-229.387 L 202.44,-228.775 L 202.365,-228.166 L 202.26,-227.561 L 202.125,-226.963 L 201.962,-226.371
 L 201.769,-225.789 L 201.548,-225.216 L 201.3,-224.656 L 201.024,-224.108 L 200.722,-223.574 L 200.393,-223.055
 L 200.04,-222.554 L 199.663,-222.07 L 199.262,-221.605 L 198.839,-221.161 L 198.394,-220.738 L 197.93,-220.337
 L 197.446,-219.96 L 196.945,-219.607 L 196.426,-219.278 L 195.892,-218.976 L 195.344,-218.7 L 194.784,-218.451
 L 194.211,-218.231 L 193.629,-218.038 L 193.037,-217.875 L 192.439,-217.74 L 191.834,-217.635 L 191.225,-217.56
 L 190.613,-217.515 L 190,-217.5 z
M 49.3866,-77.515 L 48.7748,-77.5602 L 48.1659,-77.6353 L 47.5614,-77.7402 L 46.9627,-77.8746 L 46.3714,-78.0382
 L 45.7889,-78.2307 L 45.2164,-78.4515 L 44.6555,-78.7001 L 44.1075,-78.976 L 43.5737,-79.2784 L 43.0554,-79.6066
 L 42.5538,-79.9599 L 42.0701,-80.3374 L 41.6055,-80.7381 L 41.1612,-81.1612 L 40.7381,-81.6055 L 40.3374,-82.0701
 L 39.9599,-82.5538 L 39.6066,-83.0554 L 39.2784,-83.5737 L 38.976,-84.1075 L 38.7001,-84.6555 L 38.4515,-85.2164
 L 38.2307,-85.7889 L 38.0382,-86.3714 L 37.8746,-86.9627 L 37.7402,-87.5614 L 37.6353,-88.1659 L 37.5602,-88.7748
 L 37.515,-89.3866 L 37.5,-90 L 37.515,-90.6133 L 37.5602,-91.2252 L 37.6353,-91.8341 L 37.7402,-92.4386
 L 37.8746,-93.0372 L 38.0382,-93.6286 L 38.2307,-94.2111 L 38.4515,-94.7835 L 38.7001,-95.3444 L 38.976,-95.8925
 L 39.2784,-96.4263 L 39.6066,-96.9446 L 39.9599,-97.4462 L 40.3374,-97.9299 L 40.7381,-98.3945 L 41.1612,-98.8388
 L 41.6055,-99.2619 L 42.0701,-99.6626 L 42.5538,-100.04 L 43.0554,-100.393 L 43.5737,-100.722 L 44.1075,-101.024
 L 44.6555,-101.3 L 45.2164,-101.548 L 45.7889,-101.769 L 46.3714,-101.962 L 46.9627,-102.125 L 47.5614,-102.26
 L 48.1659,-102.365 L 48.7748,-102.44 L 49.3866,-102.485 L 50,-102.5 L 50.6133,-102.485 L 51.2252,-102.44
 L 51.8341,-102.365 L 52.4386,-102.26 L 53.0372,-102.125 L 53.6286,-101.962 L 54.2111,-101.769 L 54.7835,-101.548
 L 55.3444,-101.3 L 55.8925,-101.024 L 56.4263,-100.722 L 56.9446,-100.393 L 57.4462,-100.04 L 57.9299,-99.6626
 L 58.3945,-99.2619 L 58.8388,-98.8388 L 59.2619,-98.3945 L 59.6626,-97.9299 L 60.0401,-97.4462 L 60.3934,-96.9446
 L 60.7216,-96.4263 L 61.024,-95.8925 L 61.2999,-95.3444 L 61.5485,-94.7835 L 61.7693,-94.2111 L 61.9617,-93.6286
 L 62.1254,-93.0372 L 62.2598,-92.4386 L 62.3647,-91.8341 L 62.4398,-91.2252 L 62.4849,-90.6133 L 62.5,-90
 L 62.4849,-89.3866 L 62.4398,-88.7748 L 62.3647,-88.1659 L 62.2598,-87.5614 L 62.1254,-86.9627 L 61.9617,-86.3714
 L 61.7693,-85.7889 L 61.5485,-85.2164 L 61.2999,-84.6555 L 61.024,-84.1075 L 60.7216,-83.5737 L 60.3934,-83.0554
 L 60.0401,-82.5538 L 59.6626,-82.0701 L 59.2619,-81.6055 L 58.8388,-81.1612 L 58.3945,-80.7381 L 57.9299,-80.3374
 L 57.4462,-79.9599 L 56.9446,-79.6066 L 56.4263,-79.2784 L 55.8925,-78.976 L 55.3444,-78.7001 L 54.7835,-78.4515
 L 54.2111,-78.2307 L 53.6286,-78.0382 L 53.0372,-77.8746 L 52.4386,-77.7402 L 51.8341,-77.6353 L 51.2252,-77.5602
 L 50.6133,-77.515 L 50,-77.5 z
M 189.387,-77.515 L 188.775,-77.5602 L 188.166,-77.6353 L 187.561,-77.7402 L 186.963,-77.8746 L 186.371,-78.0382
 L 185.789,-78.2307 L 185.216,-78.4515 L 184.656,-78.7001 L 184.108,-78.976 L 183.574,-79.2784 L 183.055,-79.6066
 L 182.554,-79.9599 L 182.07,-80.3374 L 181.605,-80.7381 L 181.161,-81.1612 L 180.738,-81.6055 L 180.337,-82.0701
 L 179.96,-82.5538 L 179.607,-83.0554 L 179.278,-83.5737 L 178.976,-84.1075 L 178.7,-84.6555 L 178.451,-85.2164
 L 178.231,-85.7889 L 178.038,-86.3714 L 177.875,-86.9627 L 177.74,-87.5614 L 177.635,-88.1659 L 177.56,-88.7748
 L 177.515,-89.3866 L 177.5,-90 L 177.515,-90.6133 L 177.56,-91.2252 L 177.635,-91.8341 L 177.74,-92.4386
 L 177.875,-93.0372 L 178.038,-93.6286 L 178.231,-94.2111 L 178.451,-94.7835 L 178.7,-95.3444 L 178.976,-95.8925
 L 179.278,-96.4263 L 179.607,-96.9446 L 179.96,-97.4462 L 180.337,-97.9299 L 180.738,-98.3945 L 181.161,-98.8388
 L 181.605,-99.2619 L 182.07,-99.6626 L 182.554,-100.04 L 183.055,-100.393 L 183.574,-100.722 L 184.108,-101.024
 L 184.656,-101.3 L 185.216,-101.548 L 185.789,-101.769 L 186.371,-101.962 L 186.963,-102.125 L 187.561,-102.26
 L 188.166,-102.365 L 188.775,-102.44 L 189.387,-102.485 L 190,-102.5 L 190.613,-102.485 L 191.225,-102.44
 L 191.834,-102.365 L 192.439,-102.26 L 193.037,-102.125 L 193.629,-101.962 L 194.211,-101.769 L 194.784,-101.548
 L 195.344,-101.3 L 195.892,-101.024 L 196.426,-100.722 L 196.945,-100.393 L 197.446,-100.04 L 197.93,-99.6626
 L 198.394,-99.2619 L 198.839,-98.8388 L 199.262,-98.3945 L 199.663,-97.9299 L 200.04,-97.4462 L 200.393,-96.9446
 L 200.722,-96.4263 L 201.024,-95.8925 L 201.3,-95.3444 L 201.548,-94.7835 L 201.769,-94.2111 L 201.962,-93.6286
 L 202.125,-93.0372 L 202.26,-92.4386 L 202.365,-91.8341 L 202.44,-91.2252 L 202.485,-90.6133 L 202.5,-90
 L 202.485,-89.3866 L 202.44,-88.7748 L 202.365,-88.1659 L 202.26,-87.5614 L 202.125,-86.9627 L 201.962,-86.3714
 L 201.769,-85.7889 L 201.548,-85.2164 L 201.3,-84.6555 L 201.024,-84.1075 L 200.722,-83.5737 L 200.393,-83.0554
 L 200.04,-82.5538 L 199.663,-82.0701 L 199.262,-81.6055 L 198.839,-81.1612 L 198.394,-80.7381 L 197.93,-80.3374
 L 197.446,-79.9599 L 196.945,-79.6066 L 196.426,-79.2784 L 195.892,-78.976 L 195.344,-78.7001 L 194.784,-78.4515
 L 194.211,-78.2307 L 193.629,-78.0382 L 193.037,-77.8746 L 192.439,-77.7402 L 191.834,-77.6353 L 191.225,-77.5602
 L 190.613,-77.515 L 190,-77.5 z
M 19.8896,-17.7527 L 19.7794,-17.7608 L 19.6698,-17.7743 L 19.561,-17.7932 L 19.4533,-17.8174 L 19.3468,-17.8469
 L 19.242,-17.8815 L 19.139,-17.9213 L 19.038,-17.966 L 18.9393,-18.0157 L 18.8433,-18.0701 L 18.75,-18.1292
 L 18.6597,-18.1928 L 18.5726,-18.2607 L 18.489,-18.3329 L 18.409,-18.409 L 18.3329,-18.489 L 18.2607,-18.5726
 L 18.1928,-18.6597 L 18.1292,-18.75 L 18.0701,-18.8433 L 18.0157,-18.9393 L 17.966,-19.038 L 17.9213,-19.139
 L 17.8815,-19.242 L 17.8469,-19.3468 L 17.8174,-19.4533 L 17.7932,-19.561 L 17.7743,-19.6698 L 17.7608,-19.7794
 L 17.7527,-19.8896 L 17.75,-20 L 17.7527,-20.1104 L 17.7608,-20.2205 L 17.7743,-20.3301 L 17.7932,-20.4389
 L 17.8174,-20.5467 L 17.8469,-20.6531 L 17.8815,-20.758 L 17.9213,-20.861 L 17.966,-20.962 L 18.0157,-21.0606
 L 18.0701,-21.1567 L 18.1292,-21.25 L 18.1928,-21.3403 L 18.2607,-21.4274 L 18.3329,-21.511 L 18.409,-21.591
 L 18.489,-21.6671 L 18.5726,-21.7393 L 18.6597,-21.8072 L 18.75,-21.8708 L 18.8433,-21.9299 L 18.9393,-21.9843
 L 19.038,-22.034 L 19.139,-22.0787 L 19.242,-22.1185 L 19.3468,-22.1531 L 19.4533,-22.1826 L 19.561,-22.2068
 L 19.6698,-22.2256 L 19.7794,-22.2392 L 19.8896,-22.2473 L 20,-22.25 L 20.1104,-22.2473 L 20.2205,-22.2392
 L 20.3301,-22.2256 L 20.4389,-22.2068 L 20.5467,-22.1826 L 20.6531,-22.1531 L 20.758,-22.1185 L 20.861,-22.0787
 L 20.962,-22.034 L 21.0606,-21.9843 L 21.1567,-21.9299 L 21.25,-21.8708 L 21.3403,-21.8072 L 21.4274,-21.7393
 L 21.511,-21.6671 L 21.591,-21.591 L 21.6671,-21.511 L 21.7393,-21.4274 L 21.8072,-21.3403 L 21.8708,-21.25
 L 21.9299,-21.1567 L 21.9843,-21.0606 L 22.034,-20.962 L 22.0787,-20.861 L 22.1185,-20.758 L 22.1531,-20.6531
 L 22.1826,-20.5467 L 22.2068,-20.4389 L 22.2256,-20.3301 L 22.2392,-20.2205 L 22.2473,-20.1104 L 22.25,-20
 L 22.2473,-19.8896 L 22.2392,-19.7794 L 22.2256,-19.6698 L 22.2068,-19.561 L 22.1826,-19.4533 L 22.1531,-19.3468
 L 22.1185,-19.242 L 22.0787,-19.139 L 22.034,-19.038 L 21.9843,-18.9393 L 21.9299,-18.8433 L 21.8708,-18.75
 L 21.8072,-18.6597 L 21.7393,-18.5726 L 21.6671,-18.489 L 21.591,-18.409 L 21.511,-18.3329 L 21.4274,-18.2607
 L 21.3403,-18.1928 L 21.25,-18.1292 L 21.1567,-18.0701 L 21.0606,-18.0157 L 20.962,-17.966 L 20.861,-17.9213
 L 20.758,-17.8815 L 20.6531,-17.8469 L 20.5467,-17.8174 L 20.4389,-17.7932 L 20.3301,-17.7743 L 20.2205,-17.7608
 L 20.1104,-17.7527 L 20,-17.75 z
" stroke="black" fill="lightgray" stroke-width="0.5"/></svg>
